<svg width="41" height="36" viewBox="0 0 41 36" fill="none" xmlns="http://www.w3.org/2000/svg">
<path d="M28.4892 12.805C24.9932 14.3598 22.2893 20.3366 22.2893 20.3366C22.2893 20.3366 30.2145 23.2219 34.1333 20.7831C37.0097 18.993 38.9214 13.5919 38.9214 13.5919C38.9214 13.5919 32.2163 11.1474 28.4892 12.805Z" stroke="#43945E" stroke-width="3"/>
<path d="M16.1406 12.0281C16.0864 15.8219 20.4152 20.7738 20.4152 20.7738C20.4152 20.7738 26.4059 14.8822 25.8296 10.3353C25.4065 6.99801 21.2701 3.00019 21.2701 3.00019C21.2701 3.00019 16.1984 7.98338 16.1406 12.0281Z" stroke="#43945E" stroke-width="3"/>
<path d="M24.4204 31.2911C27.3211 33.7709 33.9351 33.6711 33.9351 33.6711C33.9351 33.6711 33.2271 25.3405 29.3384 22.8548C26.4842 21.0304 20.7321 21.5977 20.7321 21.5977C20.7321 21.5977 21.328 28.6473 24.4204 31.2911Z" stroke="#43945E" stroke-width="3"/>
<path d="M17.4104 30.529C20.2416 27.8842 20.732 21.3522 20.732 21.3522C20.732 21.3522 12.0324 21.3244 9.10638 24.9431C6.95878 27.5992 7.03038 33.3219 7.03038 33.3219C7.03038 33.3219 14.392 33.3486 17.4104 30.529Z" stroke="#43945E" stroke-width="3"/>
<path d="M10.4809 21.812C14.1684 22.8458 20.1201 19.988 20.1201 19.988C20.1201 19.988 15.9223 12.7343 11.3369 12.1086C7.97127 11.6493 3.00015 14.5701 3.00015 14.5701C3.00015 14.5701 6.54953 20.7098 10.4809 21.812Z" stroke="#43945E" stroke-width="3"/>
</svg>
