<svg width="446" height="104" viewBox="0 0 446 104" fill="none" xmlns="http://www.w3.org/2000/svg">
<path d="M52 104C80.7189 104 104 80.7189 104 52C104 23.2812 80.7189 0 52 0C23.2812 0 0 23.2812 0 52C0 80.7189 23.2812 104 52 104Z" fill="#3D3636"/>
<path d="M70.5456 92.53C63.8804 95.5799 56.5659 96.9387 49.2499 96.4864C41.934 96.0342 34.8427 93.7848 28.6038 89.9371C22.365 86.0897 17.1714 80.7628 13.483 74.4286C9.79452 68.0944 7.72516 60.9484 7.45818 53.6236C7.19116 46.2987 8.73476 39.0208 11.9523 32.4349C15.1697 25.8491 19.9618 20.1584 25.9039 15.8669C31.846 11.5753 38.7549 8.81548 46.0182 7.83178C53.2819 6.84809 60.676 7.67094 67.5453 10.2274" stroke="#79655C" stroke-width="2.4" stroke-linecap="round" stroke-linejoin="round"/>
<path d="M32.7712 20.2219C38.3168 16.8663 44.6442 15.0203 51.1243 14.8675C57.6044 14.7147 64.0116 16.2604 69.7094 19.3508C75.4071 22.4413 80.1967 26.9691 83.6026 32.484C87.0081 37.9992 88.9116 44.3094 89.1229 50.788C89.3345 57.2663 87.847 63.6872 84.8084 69.4129C81.7695 75.1382 77.2853 79.9689 71.8015 83.4243C66.3175 86.8801 60.0249 88.8404 53.5487 89.1105C47.0724 89.3809 40.6381 87.9516 34.8854 84.9647" stroke="#79655C" stroke-width="2.4" stroke-linecap="round"/>
<path d="M51.4057 14.2629C53.2109 14.2629 54.6743 12.7995 54.6743 10.9943C54.6743 9.1891 53.2109 7.72573 51.4057 7.72573C49.6006 7.72573 48.1371 9.1891 48.1371 10.9943C48.1371 12.7995 49.6006 14.2629 51.4057 14.2629Z" stroke="#79655C" stroke-width="2.4"/>
<path d="M51.4057 96.2743C53.2109 96.2743 54.6743 94.8109 54.6743 93.0057C54.6743 91.2006 53.2109 89.7372 51.4057 89.7372C49.6006 89.7372 48.1371 91.2006 48.1371 93.0057C48.1371 94.8109 49.6006 96.2743 51.4057 96.2743Z" stroke="#79655C" stroke-width="2.4"/>
<path d="M85.8743 23.1772C86.2226 22.829 86.4686 21.9886 86.4686 21.9886C86.4686 21.9886 86.7146 22.829 87.0629 23.1772C87.4111 23.5253 88.2514 23.7714 88.2514 23.7714C88.2514 23.7714 87.4111 24.0176 87.0629 24.3657C86.7146 24.7139 86.4686 25.5543 86.4686 25.5543C86.4686 25.5543 86.2226 24.7139 85.8743 24.3657C85.526 24.0176 84.6857 23.7714 84.6857 23.7714C84.6857 23.7714 85.526 23.5253 85.8743 23.1772Z" fill="#79655C"/>
<path d="M95.68 51.4057C96.0283 51.0575 96.2743 50.2172 96.2743 50.2172C96.2743 50.2172 96.5203 51.0575 96.8686 51.4057C97.2168 51.754 98.0572 52 98.0572 52C98.0572 52 97.2168 52.2461 96.8686 52.5943C96.5203 52.9426 96.2743 53.7829 96.2743 53.7829C96.2743 53.7829 96.0283 52.9426 95.68 52.5943C95.3318 52.2461 94.4915 52 94.4915 52C94.4915 52 95.3318 51.754 95.68 51.4057Z" fill="#79655C"/>
<path d="M85.8743 78.1486C86.2226 77.8003 86.4686 76.96 86.4686 76.96C86.4686 76.96 86.7146 77.8003 87.0629 78.1486C87.4111 78.4968 88.2514 78.7429 88.2514 78.7429C88.2514 78.7429 87.4111 78.9889 87.0629 79.3372C86.7146 79.6854 86.4686 80.5257 86.4686 80.5257C86.4686 80.5257 86.2226 79.6854 85.8743 79.3372C85.526 78.9889 84.6857 78.7429 84.6857 78.7429C84.6857 78.7429 85.526 78.4968 85.8743 78.1486Z" fill="#79655C"/>
<path d="M57.3485 39.52C62.4219 30.8773 73.3853 25.1301 73.3853 25.1301C73.3853 25.1301 75.4873 34.506 74.7314 43.2343C73.8518 53.3895 58.2506 65.0487 58.2506 65.0487C58.2506 65.0487 53.4271 46.2004 57.3485 39.52Z" fill="#43945E"/>
<path d="M55.2686 54.8229C54.3771 50.6629 53.7828 47.2457 53.7828 47.2457C53.7828 47.2457 55.5621 52.8914 59.28 66.4114C60.0154 69.0857 62.862 76.0686 62.862 76.0686C62.862 76.0686 61.4173 78.3272 61.0792 77.9852C60.0032 76.897 55.5657 56.3086 55.2686 54.8229Z" fill="#79655C"/>
<path d="M42.9057 40.4501C32.29 36.0292 11.1047 41.619 11.1047 41.619C11.1047 41.619 23.0139 47.2594 31.6544 56.5894C39.8561 65.4454 58.1266 64.9727 58.1266 64.9727C58.1266 64.9727 54.1199 45.12 42.9057 40.4501Z" fill="#70A66B"/>
<path d="M48.7627 42.4698C50.2838 47.0009 54.8541 50.9383 54.8541 50.9383C54.8541 50.9383 55.4867 47.2514 54.8541 43.5077C53.8385 37.4968 49.3796 30.9029 49.3796 30.9029C49.3796 30.9029 47.0571 37.388 48.7627 42.4698Z" fill="#43945E"/>
<path d="M38.3314 47.9886C28.8229 43.8286 22.7314 43.3828 22.7314 43.3828C22.7314 43.3828 30.0114 45.0572 39.52 49.6228C46.6514 53.6343 58.0914 65.3714 58.0914 65.3714L58.3886 64.48C58.3886 64.48 48.5829 53.1886 38.3314 47.9886Z" fill="#79655C"/>
<path d="M63.8857 43.68C65.8383 39.1061 69.5314 33.28 69.5314 33.28C69.5314 33.28 65.0847 41.7212 63.1494 47.4677C60.8641 54.2529 58.6147 65.0743 58.6147 65.0743L57.9429 63.7068C57.9429 63.7068 60.7015 51.1398 63.8857 43.68Z" fill="#79655C"/>
<path d="M144.308 74.3639L144.466 60.3818V44.583C144.466 39.6858 144.387 35.1832 144.229 31.0755C136.74 31.0755 131.729 31.1807 129.197 31.3913C129.039 30.9174 128.96 30.1802 128.96 29.1796C128.96 28.179 129.224 27.4944 129.751 27.1257C130.331 26.7571 131.255 26.5464 132.52 26.4938C133.786 26.4411 136.581 26.4148 140.906 26.4148H150.242C158.575 26.4148 163.665 26.3358 165.511 26.1778C165.669 26.6518 165.748 27.389 165.748 28.3896C165.748 29.3376 165.458 29.996 164.878 30.3644C164.351 30.7332 163.375 30.9439 161.951 30.9964C160.527 31.049 156.861 31.0755 150.954 31.0755C150.585 38.606 150.4 43.8196 150.4 46.7159V62.5937C150.4 69.7032 150.901 74.9168 151.903 78.2344C150.954 78.6558 149.715 78.8662 148.185 78.8662C146.655 78.8662 145.627 78.5241 145.099 77.8395C144.572 77.1549 144.308 75.9964 144.308 74.3639Z" fill="#43945E"/>
<path d="M187.053 41.1427C190.729 41.1427 193.696 42.1883 195.954 44.2796C198.264 46.3186 199.419 48.5407 199.419 50.9457C199.419 53.3505 199.052 55.2329 198.316 56.5923C197.581 57.9515 196.61 59.0233 195.402 59.8074C194.247 60.5919 192.567 61.193 190.362 61.6111C187.001 62.2387 181.96 62.5524 175.239 62.5524C175.659 66.3166 176.788 69.2967 178.626 71.4926C180.516 73.6885 183.299 74.7864 186.974 74.7864C190.65 74.7864 193.25 73.4273 194.772 70.7084C196.872 71.5449 197.923 72.6951 197.923 74.1591C197.923 75.6229 196.715 76.8254 194.299 77.7664C191.937 78.7078 189.285 79.1782 186.345 79.1782C181.409 79.1782 177.366 77.6357 174.215 74.5511C171.065 71.4144 169.49 66.735 169.49 60.5134C169.49 54.2393 171.222 49.4556 174.688 46.1617C178.206 42.8156 182.328 41.1427 187.053 41.1427ZM186.738 45.456C183.588 45.456 180.884 46.5278 178.626 48.6714C176.421 50.815 175.265 54.135 175.16 58.631C182.669 58.631 187.657 58.0822 190.125 56.9843C191.175 56.5136 192.068 55.834 192.803 54.9453C193.591 54.0562 193.984 52.8798 193.984 51.4161C193.984 49.9001 193.276 48.5407 191.858 47.3381C190.493 46.0833 188.786 45.456 186.738 45.456Z" fill="#43945E"/>
<path d="M233.933 53.9258L233.775 64.513C233.775 70.5257 234.274 75.0217 235.272 78.0018C234.432 78.4202 233.407 78.6291 232.199 78.6291C231.044 78.6291 230.229 78.3676 229.756 77.8449C229.283 77.2696 228.968 76.3809 228.811 75.1783C225.554 77.8449 222.192 79.1782 218.724 79.1782C210.635 79.1782 206.59 75.4924 206.59 68.1203C206.59 65.454 207.22 63.4935 208.481 62.2387C209.742 60.9838 211.475 60.0428 213.682 59.4155C217.621 58.3699 222.612 57.6638 228.653 57.2981C228.653 52.854 228.102 49.7952 226.998 48.1226C225.895 46.3971 223.557 45.5345 219.986 45.5345C218.514 45.5345 216.991 46.0049 215.415 46.9462C213.839 47.887 212.657 49.2464 211.869 51.0242C209.453 50.5535 208.245 49.5079 208.245 47.887C208.245 45.8483 209.505 44.2273 212.027 43.0251C214.548 41.77 217.779 41.1427 221.719 41.1427C225.659 41.1427 228.68 42.0838 230.781 43.9659C232.882 45.7957 233.933 49.1159 233.933 53.9258ZM228.574 61.2976C227.051 61.4545 225.895 61.5852 225.107 61.6898C224.372 61.7941 223.347 61.9249 222.034 62.0818C220.774 62.2387 219.828 62.3955 219.197 62.5524C218.567 62.709 217.779 62.9182 216.833 63.1797C215.94 63.4412 215.258 63.7285 214.785 64.0426C214.364 64.3561 213.918 64.696 213.445 65.0621C212.552 65.7937 212.106 66.8132 212.106 68.1203C212.106 70.4731 212.788 72.2247 214.154 73.3747C215.52 74.4726 217.254 75.0217 219.355 75.0217C222.927 75.0217 225.948 73.8454 228.417 71.4926C228.364 70.7607 228.338 69.4277 228.338 67.493C228.338 65.5586 228.417 63.4935 228.574 61.2976Z" fill="#43945E"/>
<path d="M289.727 36.5459C288.827 34.8186 287.213 33.4054 284.883 32.3063C282.555 31.1548 280.093 30.579 277.499 30.579C274.906 30.579 272.682 31.3117 270.83 32.7775C269.03 34.243 268.13 36.2318 268.13 38.7444C268.13 41.2042 268.792 43.141 270.115 44.5542C271.491 45.9154 273.185 46.8835 275.197 47.4593C277.208 47.9826 279.405 48.6369 281.787 49.422C284.169 50.207 286.365 51.0185 288.377 51.8559C290.388 52.6932 292.056 54.1326 293.379 56.174C294.757 58.2156 295.443 60.6757 295.443 63.5541C295.443 66.4328 294.914 68.9193 293.856 71.013C292.797 73.0543 291.368 74.6506 289.568 75.802C286.075 78.0529 282.078 79.1782 277.579 79.1782C273.133 79.1782 269.321 78.4716 266.145 77.0583C263.022 75.5928 261.46 73.8394 261.46 71.798C261.46 70.5943 262.122 69.5736 263.445 68.736C263.869 68.4745 264.557 68.1078 265.51 67.6368C266.515 69.5736 268.315 71.1699 270.909 72.4262C273.556 73.6299 276.282 74.2319 279.088 74.2319C281.945 74.2319 284.433 73.4466 286.551 71.8768C288.668 70.2538 289.727 68.0817 289.727 65.3598C289.727 62.6383 288.774 60.5708 286.869 59.1576C285.016 57.6918 282.74 56.5926 280.04 55.8599C277.393 55.1271 274.72 54.3159 272.021 53.426C269.374 52.5363 267.098 51.0447 265.192 48.951C263.34 46.805 262.413 43.9786 262.413 40.4714C262.413 35.6562 264.001 31.966 267.177 29.4014C270.406 26.8366 274.509 25.5543 279.484 25.5543C283.137 25.5543 286.498 26.1824 289.568 27.4386C292.691 28.6947 294.253 30.4221 294.253 32.6203C294.253 34.714 292.744 36.0226 289.727 36.5459Z" fill="#3D3636"/>
<path d="M305.121 94.016L305.356 58.9511C305.356 50.651 304.857 45.109 303.861 42.3244C304.803 41.9043 305.825 41.6942 306.931 41.6942C309.183 41.6942 310.315 43.0076 310.315 45.634C314.3 42.6397 318.341 41.1427 322.433 41.1427C326.578 41.1427 329.909 42.561 332.429 45.3978C334.999 48.1817 336.285 52.4371 336.285 58.163C336.285 66.3582 333.792 72.3995 328.809 76.2867C326.183 78.3355 323.167 79.3594 319.755 79.3594C316.398 79.3594 313.331 78.4665 310.55 76.6807C310.55 85.611 310.731 91.1269 311.1 93.2283C311.465 95.382 311.81 96.9316 312.125 97.8771C311.18 98.2972 310.027 98.5076 308.66 98.5076C307.347 98.5076 306.431 98.1662 305.906 97.4831C305.383 96.8002 305.121 95.6443 305.121 94.016ZM310.704 72.5831C313.12 74.1588 316.267 74.9472 320.151 74.9472C322.51 74.9472 324.53 74.1588 326.212 72.5831C329.202 69.6414 330.696 65.2285 330.696 59.3448C330.696 54.6172 329.778 51.1502 327.942 48.9436C326.156 46.685 323.666 45.5553 320.466 45.5553C317.265 45.5553 313.958 47 310.55 49.8894C310.654 61.4462 310.704 69.0108 310.704 72.5831Z" fill="#3D3636"/>
<path d="M370.799 53.9258L370.644 64.513C370.644 70.5257 371.14 75.0217 372.139 78.0018C371.298 78.4202 370.273 78.6291 369.063 78.6291C367.91 78.6291 367.096 78.3676 366.624 77.8449C366.148 77.2696 365.833 76.3809 365.676 75.1783C362.422 77.8449 359.059 79.1782 355.591 79.1782C347.5 79.1782 343.456 75.4924 343.456 68.1203C343.456 65.454 344.088 63.4935 345.348 62.2387C346.605 60.9838 348.341 60.0428 350.548 59.4155C354.488 58.3699 359.478 57.6638 365.521 57.2981C365.521 52.854 364.969 49.7952 363.863 48.1226C362.761 46.3971 360.422 45.5345 356.851 45.5345C355.38 45.5345 353.859 46.0049 352.281 46.9462C350.703 47.887 349.523 49.2464 348.736 51.0242C346.317 50.5535 345.111 49.5079 345.111 47.887C345.111 45.8483 346.371 44.2273 348.893 43.0251C351.413 41.77 354.646 41.1427 358.586 41.1427C362.526 41.1427 365.545 42.0838 367.646 43.9659C369.747 45.7957 370.799 49.1159 370.799 53.9258ZM365.438 61.2976C363.917 61.4545 362.761 61.5852 361.974 61.6898C361.237 61.7941 360.214 61.9249 358.901 62.0818C357.638 62.2387 356.693 62.3955 356.063 62.5524C355.433 62.709 354.646 62.9182 353.701 63.1797C352.807 63.4412 352.123 63.7285 351.651 64.0426C351.229 64.3561 350.786 64.696 350.311 65.0621C349.416 65.7937 348.974 66.8132 348.974 68.1203C348.974 70.4731 349.654 72.2247 351.021 73.3747C352.388 74.4726 354.12 75.0217 356.221 75.0217C359.795 75.0217 362.814 73.8454 365.284 71.4926C365.23 70.7607 365.203 69.4277 365.203 67.493C365.203 65.5586 365.284 63.4935 365.438 61.2976Z" fill="#3D3636"/>
<path d="M397.31 74.7864C398.891 74.7864 400.498 74.4465 402.132 73.7669C403.764 73.087 404.923 72.0678 405.606 70.7084C407.713 71.5449 408.768 72.5905 408.768 73.8454C408.768 75.5706 407.558 76.9038 405.134 77.8449C402.762 78.7337 400.076 79.1782 397.072 79.1782C392.282 79.1782 388.277 77.6357 385.064 74.5511C381.849 71.4144 380.245 66.7612 380.245 60.5919C380.245 57.2981 380.771 54.37 381.823 51.8083C382.877 49.1941 384.274 47.1292 386.012 45.6126C389.539 42.6329 393.414 41.1427 397.625 41.1427C400.314 41.1427 402.869 41.7441 405.291 42.9467C407.713 44.1489 408.925 45.8483 408.925 48.0441C408.925 49.9262 407.662 51.05 405.134 51.4161C404.605 49.534 403.475 48.0961 401.734 47.1028C400.052 46.0571 398.261 45.5345 396.365 45.5345C393.411 45.5345 390.909 46.8416 388.859 49.4556C386.856 52.0175 385.855 55.651 385.855 60.3566C385.855 65.0621 386.907 68.6433 389.014 71.1003C391.174 73.5577 393.94 74.7864 397.31 74.7864Z" fill="#3D3636"/>
<path d="M433.219 41.1427C436.934 41.1427 439.932 42.1883 442.214 44.2796C444.549 46.3186 445.714 48.5407 445.714 50.9457C445.714 53.3505 445.343 55.2329 444.6 56.5923C443.857 57.9515 442.877 59.0233 441.655 59.8074C440.488 60.5919 438.788 61.193 436.562 61.6111C433.166 62.2387 428.073 62.5524 421.28 62.5524C421.708 66.3166 422.846 69.2967 424.703 71.4926C426.614 73.6885 429.428 74.7864 433.142 74.7864C436.853 74.7864 439.48 73.4273 441.019 70.7084C443.141 71.5449 444.202 72.6951 444.202 74.1591C444.202 75.6229 442.984 76.8254 440.541 77.7664C438.155 78.7078 435.475 79.1782 432.503 79.1782C427.517 79.1782 423.432 77.6357 420.246 74.5511C417.064 71.4144 415.474 66.735 415.474 60.5134C415.474 54.2393 417.224 49.4556 420.725 46.1617C424.281 42.8156 428.444 41.1427 433.219 41.1427ZM432.901 45.456C429.719 45.456 426.985 46.5278 424.703 48.6714C422.478 50.815 421.307 54.135 421.203 58.631C428.789 58.631 433.829 58.0822 436.325 56.9843C437.385 56.5136 438.289 55.834 439.029 54.9453C439.825 54.0562 440.223 52.8798 440.223 51.4161C440.223 49.9001 439.507 48.5407 438.075 47.3381C436.693 46.0833 434.973 45.456 432.901 45.456Z" fill="#3D3636"/>
</svg>
