<svg width="108" height="77" viewBox="0 0 108 77" fill="none" xmlns="http://www.w3.org/2000/svg">
<path d="M2 13.3619C2 12.8853 2.33646 12.4748 2.80389 12.3814L35.5027 5.84164C36.1215 5.71788 36.6988 6.19117 36.6988 6.82222V67.2404C36.6988 67.7171 36.3624 68.1275 35.8949 68.221L3.19611 74.7608C2.57732 74.8845 2 74.4112 2 73.7802V13.3619Z" stroke="#43945E" stroke-width="3"/>
<path d="M71.3977 26.4217V73.7802C71.3977 74.4112 70.8204 74.8845 70.2016 74.7608L37.5028 68.221C37.0353 68.1275 36.6989 67.7171 36.6989 67.2404V6.82546C36.6989 6.19335 37.278 5.71981 37.8976 5.84539L68.7953 12.1084" stroke="#43945E" stroke-width="3"/>
<path d="M92.217 8.20483L104.912 5.82447C105.528 5.70908 106.097 6.18121 106.097 6.80734V67.2404C106.097 67.7171 105.76 68.1275 105.293 68.221L72.5938 74.7608C71.975 74.8845 71.3977 74.4112 71.3977 73.7802V26.4217" stroke="#43945E" stroke-width="3"/>
<path d="M81.5462 37.6988L80.4698 38.7435L81.5767 39.8839L82.6513 38.7131L81.5462 37.6988ZM81.5462 37.6988C82.6513 38.7131 82.6515 38.7129 82.6517 38.7126L82.6524 38.7119L82.6544 38.7098L82.6612 38.7023L82.6859 38.6752C82.7073 38.6517 82.7383 38.6175 82.7783 38.5731C82.8583 38.4842 82.9744 38.3543 83.122 38.187C83.417 37.8525 83.8378 37.3678 84.3462 36.7617C85.362 35.5506 86.7324 33.8488 88.1496 31.8867C90.9329 28.0328 94.0845 22.9239 94.8491 18.5058C96.3833 9.64121 90.1443 1.33504 81.5171 1.50244C77.3819 1.58268 73.6898 3.36689 71.2347 6.41304C68.7761 9.46337 67.6364 13.6778 68.3953 18.4839C69.1549 23.2947 72.2624 28.4028 75.0255 32.185C76.4279 34.1046 77.7836 35.7382 78.7887 36.8923C79.2918 37.4699 79.7084 37.9289 80.0009 38.2452C80.1472 38.4034 80.2625 38.5261 80.3422 38.6101C80.3821 38.6521 80.413 38.6845 80.4345 38.7068L80.4595 38.7328L80.4665 38.7401L80.4686 38.7423L80.4694 38.743C80.4696 38.7433 80.4698 38.7435 81.5462 37.6988Z" stroke="#43945E" stroke-width="3"/>
<circle cx="81.7018" cy="15.1383" r="5.34598" stroke="#43945E" stroke-width="3"/>
</svg>
