<svg width="30" height="25" viewBox="0 0 30 25" fill="none" xmlns="http://www.w3.org/2000/svg">
<path d="M2.63073 10.8684C10.4046 7.42853 15.5883 5.16077 18.182 4.0651C25.5876 0.936738 27.1264 0.39331 28.1294 0.375174C28.35 0.371419 28.8432 0.426943 29.1627 0.690243C29.4325 0.912569 29.5067 1.2129 29.5423 1.42369C29.5778 1.63448 29.622 2.11466 29.5869 2.48986C29.1855 6.77235 27.4491 17.1648 26.5657 21.9613C26.1919 23.9908 25.4558 24.6713 24.7433 24.7379C23.1947 24.8827 22.0188 23.6985 20.5189 22.7C18.1719 21.1375 16.846 20.1648 14.5678 18.64C11.935 16.8779 13.6417 15.9095 15.1422 14.3267C15.5349 13.9125 22.3579 7.60943 22.49 7.03765C22.5065 6.96613 22.5218 6.69957 22.3659 6.55882C22.21 6.41807 21.9798 6.4662 21.8138 6.50448C21.5784 6.55874 17.829 9.07565 10.5657 14.0552C9.50144 14.7974 8.53748 15.159 7.6738 15.1401C6.72167 15.1192 4.89015 14.5933 3.5286 14.1438C1.85861 13.5925 0.531332 13.301 0.646908 12.3647C0.707107 11.877 1.36838 11.3782 2.63073 10.8684Z" fill="#E9E6D9"/>
</svg>
