<svg width="67" height="76" viewBox="0 0 67 76" fill="none" xmlns="http://www.w3.org/2000/svg">
<circle cx="33.8456" cy="22.3384" r="20.3384" stroke="#43945E" stroke-width="3"/>
<path d="M29.1627 18.4801L30.0254 18.4027L30.3896 17.6168L34.0763 9.6613L37.5567 17.5891L37.9122 18.3987L38.7926 18.4798L45.7407 19.1197L40.4213 24.3458L39.8306 24.9262L40.0069 25.7352L41.5548 32.8372L34.869 28.9371L34.1235 28.5022L33.3728 28.9283L26.345 32.917L27.8219 25.7172L27.9876 24.9095L27.3944 24.3367L21.9948 19.1233L29.1627 18.4801Z" stroke="#43945E" stroke-width="3"/>
<path d="M18.3243 35.5851L10.5636 44.8177L17.4545 44.3895" stroke="#43945E" stroke-width="3"/>
<path d="M24.6132 40.2684L17.5701 49.3799L16.1299 43.5065" stroke="#43945E" stroke-width="3"/>
<path d="M49.3505 35.5851L57.1112 44.8177L50.5714 44.3895" stroke="#43945E" stroke-width="3"/>
<path d="M43.0616 40.2684L50.1046 49.3799L51.896 43.5065" stroke="#43945E" stroke-width="3"/>
<path d="M10.5636 52.5913L25.5849 57.224C25.5849 57.224 34.381 58.0773 39.8341 58.9087C44.5502 60.7534 43.3437 64.8049 43.3437 64.8049M43.3437 64.8049C43.3437 64.8049 52.2575 60.851 58.7757 58.3709C60.8535 57.5804 63.9227 56.8194 64.6824 58.9087V58.9087V58.9087C65.4858 61.1181 63.4994 63.193 61.4274 64.304L48.6565 71.1515C45.1688 73.0216 41.2728 74.0002 37.3155 74.0002H24.181L10.5636 69.1569M43.3437 64.8049L35.3066 64.6645L27.0217 64.0986" stroke="#43945E" stroke-width="3" stroke-linecap="round" stroke-linejoin="round"/>
<rect x="2" y="49.3799" width="8.56355" height="22.7469" rx="4.28177" stroke="#43945E" stroke-width="3"/>
</svg>
