<svg width="38" height="25" viewBox="0 0 38 25" fill="none" xmlns="http://www.w3.org/2000/svg">
<path fill-rule="evenodd" clip-rule="evenodd" d="M37.3405 20.2173C36.4634 18.4231 35.3076 16.7841 33.9177 15.3633C33.4447 14.8048 32.8901 14.2536 32.4572 13.8235L32.3967 13.7634C32.1733 13.5414 31.9888 13.3571 31.8379 13.1984C33.7384 10.5143 35.3651 7.64033 36.6922 4.62062L36.7458 4.49878L36.7834 4.37091C36.9577 3.77656 37.1586 2.64634 36.4479 1.62494C35.7134 0.569231 34.5371 0.378834 33.7495 0.378834H30.1258C29.3704 0.34367 28.6223 0.551085 27.9885 0.972777C27.3499 1.39765 26.8615 2.01738 26.5926 2.74183C25.8123 4.62974 24.8358 6.42547 23.681 8.09897V3.78609C23.681 3.22859 23.6294 2.296 23.0416 1.50885C22.3379 0.566382 21.3201 0.378834 20.6136 0.378834H14.8638C14.123 0.36144 13.4025 0.630454 12.8488 1.13265C12.2818 1.64692 11.9343 2.36531 11.8801 3.13545L11.8749 3.2084V3.28154C11.8749 4.07668 12.1852 4.6632 12.433 5.03207C12.544 5.19721 12.6627 5.34755 12.7376 5.4425L12.7549 5.46441C12.8349 5.56566 12.8882 5.63324 12.9418 5.70722C13.0827 5.90182 13.2853 6.20188 13.3426 6.9783V9.39076C12.3513 7.73578 11.3056 5.53346 10.5188 3.18132L10.5067 3.14523L10.4934 3.1096C10.2972 2.58776 9.98252 1.82846 9.35232 1.24741C8.61611 0.56861 7.74532 0.378834 6.95339 0.378834H3.27666C2.47549 0.378834 1.50963 0.569199 0.78896 1.3413C0.0802656 2.10059 0 3.01038 0 3.49412V3.71216L0.0452166 3.92531C1.0636 8.72598 3.16199 13.2216 6.17552 17.0607C7.54177 19.2489 9.39307 21.0831 11.5821 22.4161C13.8061 23.7706 16.3152 24.5689 18.9025 24.7454L18.9699 24.75H19.0376C20.2081 24.75 21.4284 24.6475 22.3459 24.0264C23.5838 23.1887 23.681 21.902 23.681 21.2608V19.3971C23.9987 19.6578 24.3929 20.009 24.8754 20.4808C25.4586 21.0737 25.9231 21.5875 26.3214 22.036L26.5339 22.2761L26.5352 22.2774C26.8445 22.6272 27.149 22.9716 27.4262 23.2547C27.7747 23.6104 28.2043 24.0025 28.7444 24.2921C29.3291 24.6057 29.9429 24.7475 30.5949 24.7475H34.2741C35.0491 24.7475 36.1609 24.5613 36.9425 23.641C37.7943 22.638 37.7293 21.4087 37.4615 20.5252L37.4133 20.3663L37.3405 20.2173ZM28.1174 20.3903C27.7033 19.924 27.2038 19.3712 26.5727 18.7303L26.5675 18.7251C24.3806 16.5836 23.3587 16.2105 22.6362 16.2105C22.2519 16.2105 21.8267 16.2544 21.5507 16.6034C21.4204 16.7682 21.3521 16.967 21.3137 17.1742C21.2753 17.3811 21.2621 17.624 21.2621 17.9006V21.2608C21.2621 21.6781 21.1945 21.8533 21.0046 21.9821C20.7514 22.1534 20.2103 22.2923 19.0512 22.2933C16.8509 22.1409 14.7176 21.4611 12.8261 20.3092C10.9307 19.155 9.33246 17.5599 8.16294 15.6555L8.15022 15.6348L8.13516 15.6157C5.32713 12.066 3.37045 7.90199 2.41943 3.45265C2.42459 3.23816 2.47034 3.11091 2.54448 3.03148C2.62087 2.94964 2.80597 2.83558 3.27666 2.83558H6.95339C7.36238 2.83558 7.57406 2.92594 7.7264 3.0664C7.89911 3.22564 8.04891 3.49607 8.2309 3.97891C9.13334 6.67475 10.3537 9.19586 11.5094 11.0496C12.087 11.9761 12.6554 12.7473 13.1676 13.2922C13.4233 13.5644 13.674 13.7898 13.9133 13.9502C14.1449 14.1053 14.4075 14.2276 14.6775 14.2276C14.82 14.2276 14.9867 14.2127 15.1471 14.1405C15.3197 14.063 15.4537 13.9336 15.5483 13.7602C15.7157 13.4536 15.7616 12.9994 15.7616 12.4044V6.89519L15.7608 6.88226C15.6772 5.54196 15.2787 4.78802 14.8908 4.25204C14.8057 4.13457 14.7219 4.02847 14.6485 3.93563L14.6284 3.91019C14.5478 3.80815 14.4837 3.72571 14.4311 3.6473C14.3346 3.50365 14.2971 3.4035 14.2941 3.29617C14.3067 3.16878 14.3658 3.05058 14.4601 2.96505C14.558 2.87628 14.686 2.83006 14.8171 2.83558H20.6136C20.946 2.83558 21.0579 2.91793 21.1142 2.99337C21.1937 3.09986 21.2621 3.32134 21.2621 3.78609V11.2032C21.2621 12.0842 21.662 12.6807 22.2427 12.6807C22.911 12.6807 23.3927 12.2689 24.2351 11.4133L24.2492 11.3991L24.2617 11.3833C26.1498 9.04502 27.6929 6.43985 28.8415 3.64973L28.8487 3.62881C28.9352 3.38227 29.0985 3.1712 29.3141 3.02779C29.5296 2.8844 29.7853 2.81655 30.0424 2.83461L30.0564 2.83558H33.7495C34.2531 2.83558 34.4189 2.96577 34.4725 3.04276C34.5294 3.12467 34.5691 3.30023 34.4723 3.64452C33.1482 6.65225 31.5107 9.50721 29.5886 12.1615L29.5765 12.1801C29.3899 12.47 29.1853 12.7907 29.1556 13.1589C29.1238 13.5543 29.2924 13.9138 29.587 14.299C29.8018 14.6215 30.2448 15.0619 30.6942 15.5087L30.7366 15.5508C31.2078 16.0192 31.7182 16.5266 32.128 17.018L32.139 17.0309L32.1509 17.043C33.3725 18.2806 34.3883 19.7112 35.1586 21.2789C35.2817 21.7058 35.2064 21.9239 35.1107 22.0364C34.999 22.1681 34.7484 22.2908 34.2741 22.2908H30.5949C30.3075 22.2908 30.0858 22.2333 29.8739 22.1196C29.6531 22.0012 29.426 21.8129 29.1413 21.5222C28.9119 21.288 28.6613 21.0046 28.3556 20.6592C28.2798 20.5735 28.2006 20.4838 28.1174 20.3903Z" fill="#E9E6D9"/>
</svg>
