<svg width="206" height="50" viewBox="0 0 206 50" fill="none" xmlns="http://www.w3.org/2000/svg">
<path d="M24 49.125C37.2549 49.125 48 38.212 48 24.75C48 11.2881 37.2549 0.375 24 0.375C10.7452 0.375 0 11.2881 0 24.75C0 38.212 10.7452 49.125 24 49.125Z" fill="#E9E6D9"/>
<path d="M32.5595 43.7485C29.4833 45.1781 26.1073 45.815 22.7308 45.6031C19.3542 45.3911 16.0812 44.3367 13.2018 42.5331C10.3223 40.7296 7.92527 38.2326 6.22291 35.2635C4.52056 32.2943 3.56547 28.9446 3.44224 25.5111C3.31901 22.0776 4.03144 18.666 5.51643 15.5789C7.00143 12.4918 9.21315 9.82427 11.9557 7.81262C14.6982 5.80096 17.8869 4.50729 21.2392 4.04618C24.5916 3.58508 28.0043 3.97079 31.1748 5.16913" stroke="#43945E" stroke-width="1.05143" stroke-linecap="round" stroke-linejoin="round"/>
<path d="M15.1252 9.85408C17.6847 8.28113 20.6051 7.41583 23.5959 7.34419C26.5867 7.27257 29.5439 7.9971 32.1736 9.44576C34.8034 10.8944 37.014 13.0168 38.5859 15.6019C40.1577 18.1872 41.0362 21.1451 41.1337 24.1819C41.2314 27.2186 40.5449 30.2284 39.1424 32.9123C37.7399 35.5961 35.6702 37.8605 33.1393 39.4802C30.6081 41.1001 27.7039 42.019 24.7148 42.1456C21.7258 42.2723 18.7561 41.6024 16.101 40.2023" stroke="#43945E" stroke-width="1.05143" stroke-linecap="round"/>
<path d="M23.7257 7.06087C24.5589 7.06087 25.2343 6.3749 25.2343 5.52872C25.2343 4.68254 24.5589 3.99658 23.7257 3.99658C22.8926 3.99658 22.2172 4.68254 22.2172 5.52872C22.2172 6.3749 22.8926 7.06087 23.7257 7.06087Z" stroke="#43945E" stroke-width="1.05143"/>
<path d="M23.7257 45.5035C24.5589 45.5035 25.2343 44.8175 25.2343 43.9714C25.2343 43.1252 24.5589 42.4392 23.7257 42.4392C22.8926 42.4392 22.2172 43.1252 22.2172 43.9714C22.2172 44.8175 22.8926 45.5035 23.7257 45.5035Z" stroke="#43945E" stroke-width="1.05143"/>
<path d="M39.6343 11.2393C39.795 11.0761 39.9086 10.6821 39.9086 10.6821C39.9086 10.6821 40.0221 11.0761 40.1829 11.2393C40.3436 11.4025 40.7314 11.5178 40.7314 11.5178C40.7314 11.5178 40.3436 11.6332 40.1829 11.7964C40.0221 11.9596 39.9086 12.3536 39.9086 12.3536C39.9086 12.3536 39.795 11.9596 39.6343 11.7964C39.4735 11.6332 39.0857 11.5178 39.0857 11.5178C39.0857 11.5178 39.4735 11.4025 39.6343 11.2393Z" fill="#43945E"/>
<path d="M44.16 24.4714C44.3207 24.3082 44.4343 23.9143 44.4343 23.9143C44.4343 23.9143 44.5478 24.3082 44.7086 24.4714C44.8693 24.6347 45.2571 24.75 45.2571 24.75C45.2571 24.75 44.8693 24.8653 44.7086 25.0286C44.5478 25.1918 44.4343 25.5857 44.4343 25.5857C44.4343 25.5857 44.3207 25.1918 44.16 25.0286C43.9993 24.8653 43.6115 24.75 43.6115 24.75C43.6115 24.75 43.9993 24.6347 44.16 24.4714Z" fill="#43945E"/>
<path d="M39.6343 37.0071C39.795 36.8439 39.9086 36.45 39.9086 36.45C39.9086 36.45 40.0221 36.8439 40.1829 37.0071C40.3436 37.1703 40.7314 37.2857 40.7314 37.2857C40.7314 37.2857 40.3436 37.401 40.1829 37.5642C40.0221 37.7275 39.9086 38.1214 39.9086 38.1214C39.9086 38.1214 39.795 37.7275 39.6343 37.5642C39.4735 37.401 39.0857 37.2857 39.0857 37.2857C39.0857 37.2857 39.4735 37.1703 39.6343 37.0071Z" fill="#43945E"/>
<path d="M26.4685 18.9C28.8101 14.8488 33.8702 12.1548 33.8702 12.1548C33.8702 12.1548 34.8403 16.5497 34.4914 20.6411C34.0855 25.4013 26.8849 30.8666 26.8849 30.8666C26.8849 30.8666 24.6587 22.0315 26.4685 18.9Z" fill="#43945E"/>
<path d="M25.5086 26.0733C25.0972 24.1233 24.8229 22.5215 24.8229 22.5215C24.8229 22.5215 25.6441 25.1679 27.36 31.5054C27.6994 32.759 29.0132 36.0322 29.0132 36.0322C29.0132 36.0322 28.3465 37.0909 28.1904 36.9306C27.6938 36.4205 25.6457 26.7697 25.5086 26.0733Z" fill="#79655C"/>
<path d="M19.8026 19.336C14.9031 17.2637 5.12524 19.8839 5.12524 19.8839C5.12524 19.8839 10.6218 22.5279 14.6097 26.9013C18.3951 31.0526 26.8276 30.831 26.8276 30.831C26.8276 30.831 24.9784 21.525 19.8026 19.336Z" fill="#70A66B"/>
<path d="M22.5058 20.2828C23.2078 22.4068 25.3172 24.2525 25.3172 24.2525C25.3172 24.2525 25.6092 22.5242 25.3172 20.7693C24.8484 17.9517 22.7905 14.8608 22.7905 14.8608C22.7905 14.8608 21.7186 17.9008 22.5058 20.2828Z" fill="#43945E"/>
<path d="M17.6915 22.8696C13.3029 20.9196 10.4915 20.7107 10.4915 20.7107C10.4915 20.7107 13.8515 21.4956 18.24 23.6357C21.5315 25.5161 26.8115 31.0178 26.8115 31.0178L26.9486 30.6C26.9486 30.6 22.4229 25.3071 17.6915 22.8696Z" fill="#79655C"/>
<path d="M29.4857 20.8499C30.3868 18.7058 32.0914 15.9749 32.0914 15.9749C32.0914 15.9749 30.039 19.9317 29.1458 22.6253C28.091 25.8059 27.0529 30.8784 27.0529 30.8784L26.7428 30.2374C26.7428 30.2374 28.016 24.3466 29.4857 20.8499Z" fill="#79655C"/>
<path d="M66.6037 35.2332L66.6768 28.6791V21.2734C66.6768 18.9779 66.6403 16.8673 66.5672 14.9418C63.1106 14.9418 60.7981 14.9911 59.6296 15.0898C59.5565 14.8677 59.52 14.5221 59.52 14.0531C59.52 13.584 59.6417 13.2631 59.8852 13.0903C60.1529 12.9175 60.579 12.8188 61.1631 12.7941C61.7474 12.7694 63.0376 12.7571 65.0337 12.7571H69.3423C73.1886 12.7571 75.5376 12.7201 76.3898 12.646C76.4628 12.8682 76.4993 13.2138 76.4993 13.6828C76.4993 14.1271 76.3654 14.4358 76.0976 14.6085C75.8541 14.7813 75.4038 14.8801 74.7466 14.9047C74.0893 14.9294 72.3975 14.9418 69.6711 14.9418C69.5007 18.4717 69.4154 20.9156 69.4154 22.2732V29.716C69.4154 33.0485 69.6468 35.4924 70.1091 37.0475C69.6711 37.2451 69.099 37.3437 68.393 37.3437C67.6872 37.3437 67.2124 37.1833 66.9689 36.8624C66.7256 36.5415 66.6037 35.9984 66.6037 35.2332Z" fill="#E9E6D9"/>
<path d="M86.3323 19.6606C88.0288 19.6606 89.3982 20.1508 90.4402 21.1311C91.5065 22.0869 92.0397 23.1284 92.0397 24.2558C92.0397 25.3831 91.87 26.2654 91.5307 26.9027C91.1914 27.5398 90.7431 28.0422 90.1856 28.4097C89.6526 28.7775 88.877 29.0592 87.8593 29.2552C86.3082 29.5494 83.9817 29.6965 80.8795 29.6965C81.0736 31.4609 81.5944 32.8578 82.4428 33.8871C83.3152 34.9165 84.5997 35.4311 86.296 35.4311C87.9924 35.4311 89.1922 34.794 89.8949 33.5196C90.8642 33.9117 91.349 34.4508 91.349 35.1371C91.349 35.8232 90.7915 36.3869 89.6767 36.828C88.5863 37.2693 87.3624 37.4898 86.0052 37.4898C83.7273 37.4898 81.8612 36.7667 80.4071 35.3208C78.9531 33.8505 78.2261 31.657 78.2261 28.7407C78.2261 25.7997 79.0258 23.5573 80.6251 22.0133C82.2489 20.4448 84.1513 19.6606 86.3323 19.6606ZM86.187 21.6825C84.733 21.6825 83.4848 22.1849 82.4428 23.1897C81.4249 24.1945 80.8917 25.7508 80.8432 27.8583C84.3088 27.8583 86.6111 27.601 87.7502 27.0864C88.2348 26.8658 88.6469 26.5472 88.986 26.1306C89.3496 25.7139 89.5313 25.1624 89.5313 24.4763C89.5313 23.7657 89.2042 23.1284 88.5499 22.5648C87.9198 21.9765 87.1321 21.6825 86.187 21.6825Z" fill="#E9E6D9"/>
<path d="M107.969 25.6527L107.896 30.6155C107.896 33.4339 108.127 35.5414 108.587 36.9383C108.199 37.1345 107.727 37.2324 107.169 37.2324C106.636 37.2324 106.26 37.1098 106.041 36.8648C105.823 36.5951 105.678 36.1785 105.605 35.6148C104.102 36.8648 102.55 37.4898 100.95 37.4898C97.216 37.4898 95.3491 35.7621 95.3491 32.3064C95.3491 31.0566 95.64 30.1376 96.2219 29.5494C96.8038 28.9612 97.6039 28.5201 98.6223 28.226C100.441 27.7359 102.744 27.4049 105.532 27.2335C105.532 25.1503 105.278 23.7165 104.768 22.9325C104.259 22.1236 103.18 21.7193 101.532 21.7193C100.853 21.7193 100.15 21.9398 99.4224 22.381C98.695 22.822 98.1494 23.4592 97.7859 24.2926C96.6705 24.072 96.1129 23.5818 96.1129 22.822C96.1129 21.8664 96.6948 21.1066 97.8586 20.543C99.0222 19.9547 100.513 19.6606 102.332 19.6606C104.15 19.6606 105.544 20.1018 106.514 20.984C107.484 21.8417 107.969 23.3981 107.969 25.6527ZM105.496 29.1083C104.793 29.1818 104.259 29.2431 103.896 29.2921C103.556 29.341 103.083 29.4023 102.477 29.4758C101.895 29.5494 101.459 29.6229 101.168 29.6965C100.877 29.7699 100.514 29.8679 100.077 29.9905C99.6647 30.1131 99.3497 30.2478 99.1314 30.395C98.9375 30.5419 98.7313 30.7013 98.5133 30.8729C98.101 31.2158 97.8949 31.6937 97.8949 32.3064C97.8949 33.4093 98.21 34.2303 98.8405 34.7694C99.4708 35.284 100.271 35.5414 101.241 35.5414C102.89 35.5414 104.284 34.99 105.423 33.8871C105.399 33.5441 105.387 32.9193 105.387 32.0124C105.387 31.1056 105.423 30.1376 105.496 29.1083Z" fill="#E9E6D9"/>
<path d="M133.72 17.5058C133.305 16.6962 132.56 16.0337 131.485 15.5185C130.41 14.9788 129.274 14.7088 128.076 14.7088C126.88 14.7088 125.853 15.0523 124.998 15.7394C124.168 16.4264 123.752 17.3586 123.752 18.5364C123.752 19.6894 124.058 20.5973 124.669 21.2597C125.304 21.8978 126.086 22.3516 127.014 22.6215C127.942 22.8668 128.956 23.1735 130.055 23.5415C131.155 23.9095 132.169 24.2899 133.097 24.6824C134.025 25.0749 134.795 25.7496 135.406 26.7065C136.042 27.6635 136.358 28.8167 136.358 30.1659C136.358 31.5153 136.114 32.6809 135.626 33.6623C135.137 34.6192 134.477 35.3674 133.647 35.9071C132.034 36.9622 130.19 37.4897 128.113 37.4897C126.061 37.4897 124.302 37.1585 122.836 36.496C121.395 35.8091 120.674 34.9872 120.674 34.0303C120.674 33.466 120.979 32.9876 121.59 32.5949C121.786 32.4724 122.103 32.3005 122.543 32.0797C123.007 32.9876 123.838 33.7358 125.035 34.3247C126.257 34.889 127.515 35.1712 128.81 35.1712C130.129 35.1712 131.277 34.803 132.254 34.0672C133.232 33.3064 133.72 32.2882 133.72 31.0124C133.72 29.7367 133.28 28.7675 132.401 28.1051C131.546 27.418 130.495 26.9027 129.249 26.5593C128.028 26.2158 126.794 25.8355 125.548 25.4184C124.326 25.0014 123.276 24.3021 122.396 23.3207C121.541 22.3148 121.114 20.9899 121.114 19.3459C121.114 17.0888 121.847 15.359 123.313 14.1568C124.803 12.9546 126.696 12.3535 128.993 12.3535C130.679 12.3535 132.23 12.6479 133.647 13.2368C135.088 13.8256 135.809 14.6353 135.809 15.6657C135.809 16.6471 135.113 17.2606 133.72 17.5058Z" fill="#E9E6D9"/>
<path d="M199.947 19.6606C201.662 19.6606 203.046 20.1508 204.099 21.1311C205.177 22.0869 205.714 23.1284 205.714 24.2558C205.714 25.3831 205.543 26.2654 205.2 26.9027C204.857 27.5398 204.405 28.0422 203.841 28.4097C203.302 28.7775 202.518 29.0592 201.49 29.2552C199.923 29.5494 197.572 29.6965 194.437 29.6965C194.635 31.4609 195.16 32.8578 196.017 33.8871C196.899 34.9165 198.198 35.4311 199.912 35.4311C201.625 35.4311 202.837 34.794 203.547 33.5196C204.527 33.9117 205.016 34.4508 205.016 35.1371C205.016 35.8232 204.454 36.3869 203.327 36.828C202.225 37.2693 200.988 37.4898 199.617 37.4898C197.316 37.4898 195.43 36.7667 193.96 35.3208C192.491 33.8505 191.757 31.657 191.757 28.7407C191.757 25.7997 192.565 23.5573 194.181 22.0133C195.822 20.4448 197.744 19.6606 199.947 19.6606ZM199.801 21.6825C198.332 21.6825 197.07 22.1849 196.017 23.1897C194.99 24.1945 194.449 25.7508 194.401 27.8583C197.903 27.8583 200.229 27.601 201.381 27.0864C201.87 26.8658 202.287 26.5472 202.629 26.1306C202.996 25.7139 203.18 25.1624 203.18 24.4763C203.18 23.7657 202.849 23.1284 202.188 22.5648C201.551 21.9765 200.757 21.6825 199.801 21.6825Z" fill="#E9E6D9"/>
<path d="M140.825 44.445L140.933 28.0083C140.933 24.1176 140.703 21.5198 140.244 20.2146C140.678 20.0176 141.15 19.9192 141.66 19.9192C142.7 19.9192 143.222 20.5348 143.222 21.7659C145.061 20.3624 146.927 19.6606 148.815 19.6606C150.728 19.6606 152.266 20.3255 153.429 21.6552C154.615 22.9602 155.209 24.9549 155.209 27.6389C155.209 31.4804 154.058 34.3123 151.758 36.1344C150.546 37.0948 149.154 37.5747 147.579 37.5747C146.03 37.5747 144.614 37.1562 143.331 36.3191C143.331 40.5052 143.414 43.0907 143.584 44.0758C143.753 45.0853 143.912 45.8117 144.058 46.2549C143.621 46.4518 143.089 46.5504 142.459 46.5504C141.852 46.5504 141.43 46.3904 141.187 46.0702C140.946 45.7501 140.825 45.2083 140.825 44.445ZM143.402 34.3983C144.517 35.137 145.969 35.5065 147.762 35.5065C148.851 35.5065 149.783 35.137 150.56 34.3983C151.939 33.0194 152.629 30.9509 152.629 28.1929C152.629 25.9768 152.205 24.3516 151.358 23.3173C150.533 22.2586 149.384 21.729 147.907 21.729C146.43 21.729 144.904 22.4062 143.331 23.7607C143.379 29.1779 143.402 32.7238 143.402 34.3983Z" fill="#E9E6D9"/>
<path d="M171.138 25.6527L171.067 30.6155C171.067 33.4339 171.296 35.5414 171.756 36.9383C171.368 37.1345 170.895 37.2324 170.337 37.2324C169.805 37.2324 169.429 37.1098 169.211 36.8648C168.992 36.5951 168.846 36.1785 168.773 35.6148C167.272 36.8648 165.719 37.4898 164.119 37.4898C160.384 37.4898 158.518 35.7621 158.518 32.3064C158.518 31.0566 158.81 30.1376 159.392 29.5494C159.972 28.9612 160.773 28.5201 161.792 28.226C163.61 27.7359 165.913 27.4049 168.702 27.2335C168.702 25.1503 168.447 23.7165 167.937 22.9325C167.428 22.1236 166.349 21.7193 164.7 21.7193C164.021 21.7193 163.319 21.9398 162.591 22.381C161.863 22.822 161.318 23.4592 160.955 24.2926C159.839 24.072 159.282 23.5818 159.282 22.822C159.282 21.8664 159.863 21.1066 161.028 20.543C162.191 19.9547 163.683 19.6606 165.501 19.6606C167.32 19.6606 168.713 20.1018 169.683 20.984C170.652 21.8417 171.138 23.3981 171.138 25.6527ZM168.664 29.1083C167.962 29.1818 167.428 29.2431 167.065 29.2921C166.725 29.341 166.253 29.4023 165.647 29.4758C165.064 29.5494 164.628 29.6229 164.337 29.6965C164.046 29.7699 163.683 29.8679 163.247 29.9905C162.834 30.1131 162.518 30.2478 162.3 30.395C162.106 30.5419 161.901 30.7013 161.682 30.8729C161.269 31.2158 161.065 31.6937 161.065 32.3064C161.065 33.4093 161.379 34.2303 162.01 34.7694C162.64 35.284 163.44 35.5414 164.41 35.5414C166.059 35.5414 167.453 34.99 168.592 33.8871C168.568 33.5441 168.555 32.9193 168.555 32.0124C168.555 31.1056 168.592 30.1376 168.664 29.1083Z" fill="#E9E6D9"/>
<path d="M183.374 35.4311C184.103 35.4311 184.845 35.2718 185.599 34.9532C186.352 34.6346 186.887 34.1568 187.203 33.5196C188.175 33.9117 188.662 34.4018 188.662 34.99C188.662 35.7987 188.104 36.4237 186.985 36.8648C185.89 37.2814 184.65 37.4898 183.264 37.4898C181.053 37.4898 179.205 36.7667 177.722 35.3208C176.238 33.8505 175.498 31.6693 175.498 28.7775C175.498 27.2335 175.74 25.8609 176.226 24.6602C176.713 23.4347 177.357 22.4668 178.159 21.7559C179.787 20.3592 181.576 19.6606 183.519 19.6606C184.76 19.6606 185.94 19.9426 187.057 20.5062C188.175 21.0698 188.735 21.8664 188.735 22.8957C188.735 23.7779 188.152 24.3047 186.985 24.4763C186.741 23.5941 186.219 22.9201 185.416 22.4544C184.639 21.9643 183.813 21.7193 182.938 21.7193C181.574 21.7193 180.42 22.332 179.473 23.5573C178.549 24.7582 178.087 26.4614 178.087 28.6671C178.087 30.8729 178.572 32.5515 179.545 33.7033C180.542 34.8552 181.818 35.4311 183.374 35.4311Z" fill="#E9E6D9"/>
</svg>
